{
	"patcher" : 	{
		"fileversion" : 1,
		"appversion" : 		{
			"major" : 9,
			"minor" : 1,
			"revision" : 0,
			"architecture" : "x64",
			"modernui" : 1
		}
,
		"classnamespace" : "box",
		"openrect" : [ 10.0, 10.0, 800.0, 600.0 ],
		"gridsize" : [ 15.0, 15.0 ],
		"showrootpatcherontab" : 0,
		"showontab" : 0,
		"assistshowspatchername" : 0,
		"commentary" : "",
		"showcommentary" : 0,
		"integercoordinates" : 1,
		"boxes" : [ 			{
				"box" : 				{
					"id" : "obj-51",
					"maxclass" : "newobj",
					"numinlets" : 0,
					"numoutlets" : 0,
					"patcher" : 					{
						"fileversion" : 1,
						"appversion" : 						{
							"major" : 9,
							"minor" : 1,
							"revision" : 0,
							"architecture" : "x64",
							"modernui" : 1
						}
,
						"classnamespace" : "box",
						"openrect" : [ 10.0, 10.0, 850.0, 600.0 ],
						"gridsize" : [ 15.0, 15.0 ],
						"showontab" : 1,
						"assistshowspatchername" : 0,
						"commentary" : "",
						"showcommentary" : 0,
						"integercoordinates" : 1,
						"boxes" : [ 							{
								"box" : 								{
									"id" : "obj-10",
									"linecount" : 2,
									"maxclass" : "comment",
									"numinlets" : 1,
									"numoutlets" : 0,
									"patching_rect" : [ 86.0, 444.0, 251.0, 47.0 ],
									"text" : "you can find a set of scales inside this package at /misc/scales.json\n"
								}

							}
, 							{
								"box" : 								{
									"id" : "obj-7",
									"maxclass" : "toggle",
									"numinlets" : 1,
									"numoutlets" : 1,
									"outlettype" : [ "int" ],
									"parameter_enable" : 0,
									"patching_rect" : [ 455.0, 369.0, 24.0, 24.0 ]
								}

							}
, 							{
								"box" : 								{
									"id" : "obj-4",
									"maxclass" : "comment",
									"numinlets" : 1,
									"numoutlets" : 0,
									"patching_rect" : [ 520.0, 163.0, 150.0, 20.0 ],
									"text" : "these scales are invalid"
								}

							}
, 							{
								"box" : 								{
									"id" : "obj-2",
									"maxclass" : "message",
									"numinlets" : 2,
									"numoutlets" : 1,
									"outlettype" : [ "" ],
									"patching_rect" : [ 589.0, 183.0, 71.0, 22.0 ],
									"text" : "2 4 5 7 9 11"
								}

							}
, 							{
								"box" : 								{
									"code" : "{\n\t\"chromatic\" : [ 0, 1, 2, 3, 4, 5, 6, 7, 8, 9, 10, 11 ],\n\t\"major\" : [ 0, 2, 4, 5, 7, 9, 11 ],\n\t\"minor\" : [ 0, 2, 3, 5, 7, 8, 10 ],\n\t\"dorian\" : [ 0, 2, 3, 5, 7, 9, 10 ],\n\t\"mixolydian\" : [ 0, 2, 4, 5, 7, 9, 10 ],\n\t\"lydian\" : [ 0, 2, 4, 6, 7, 9, 11 ],\n\t\"phrygian\" : [ 0, 1, 3, 5, 7, 8, 10 ],\n\t\"locrian\" : [ 0, 1, 3, 5, 6, 8, 10 ],\n\t\"whole_tone\" : [ 0, 2, 4, 6, 8, 10 ],\n\t\"half_whole_diminished\" : [ 0, 1, 3, 4, 6, 7, 9, 10 ],\n\t\"whole_half_diminshed\" : [ 0, 2, 3, 5, 6, 8, 9, 11 ],\n\t\"minor_blues\" : [ 0, 3, 5, 6, 7, 10 ],\n\t\"minor_pentatonic\" : [ 0, 3, 5, 7, 10 ],\n\t\"major_pentatonic\" : [ 0, 2, 4, 7, 9 ],\n\t\"harmonic_minor\" : [ 0, 2, 3, 5, 7, 8, 11 ],\n\t\"harmonic_major\" : [ 0, 2, 4, 5, 7, 8, 11 ],\n\t\"dorian_4\" : [ 0, 2, 3, 6, 7, 9, 10 ],\n\t\"phrygian_dominant\" : [ 0, 1, 4, 5, 7, 8, 10 ],\n\t\"melodic_minor\" : [ 0, 2, 3, 5, 7, 9, 11 ],\n\t\"lydian_augmented\" : [ 0, 2, 4, 6, 8, 9, 11 ],\n\t\"lydian_dominant\" : [ 0, 2, 4, 6, 7, 9, 10 ],\n\t\"super_locrian\" : [ 0, 1, 3, 4, 6, 8, 10 ],\n\t\"8-tone_spanish\" : [ 0, 1, 3, 4, 5, 6, 8, 10 ],\n\t\"bhairav\" : [ 0, 1, 4, 5, 7, 8, 11 ],\n\t\"hungarian_minor\" : [ 0, 2, 3, 6, 7, 8, 11 ],\n\t\"hirajoshi\" : [ 0, 2, 3, 7, 8 ],\n\t\"insen\" : [ 0, 1, 5, 7, 10 ],\n\t\"iwato\" : [ 0, 1, 5, 6, 10 ],\n\t\"kumoi\" : [ 0, 2, 3, 7, 9 ],\n\t\"pelog_selisir\" : [ 0, 1, 3, 7, 8 ],\n\t\"pelog_tembung\" : [ 0, 1, 5, 7, 8 ],\n\t\"messiaen_3\" : [ 0, 2, 3, 4, 6, 7, 8, 10, 11 ],\n\t\"messiaen_4\" : [ 0, 1, 2, 5, 6, 7, 8, 11 ],\n\t\"messiaen_5\" : [ 0, 1, 5, 6, 7, 11 ],\n\t\"messiaen_6\" : [ 0, 2, 4, 5, 6, 8, 10, 11 ],\n\t\"messiaen_7\" : [ 0, 1, 2, 3, 5, 6, 7, 8, 9, 11 ]\n}\n",
									"fontface" : 0,
									"fontname" : "<Monospaced>",
									"fontsize" : 12.0,
									"id" : "obj-1",
									"maxclass" : "dict.codebox",
									"numinlets" : 2,
									"numoutlets" : 5,
									"outlettype" : [ "dictionary", "", "", "", "" ],
									"patching_rect" : [ 86.0, 221.0, 340.0, 200.0 ],
									"saved_object_attributes" : 									{
										"name" : "pdm.scale.launch.scales",
										"parameter_enable" : 0,
										"parameter_mappable" : 0
									}

								}

							}
, 							{
								"box" : 								{
									"id" : "obj-39",
									"maxclass" : "message",
									"numinlets" : 2,
									"numoutlets" : 1,
									"outlettype" : [ "" ],
									"patching_rect" : [ 520.0, 183.0, 65.0, 22.0 ],
									"text" : "0 1 5 3 7 9"
								}

							}
, 							{
								"box" : 								{
									"id" : "obj-37",
									"maxclass" : "newobj",
									"numinlets" : 1,
									"numoutlets" : 1,
									"outlettype" : [ "" ],
									"patcher" : 									{
										"fileversion" : 1,
										"appversion" : 										{
											"major" : 9,
											"minor" : 1,
											"revision" : 0,
											"architecture" : "x64",
											"modernui" : 1
										}
,
										"classnamespace" : "box",
										"rect" : [ 84.0, 144.0, 1000.0, 755.0 ],
										"gridsize" : [ 15.0, 15.0 ],
										"assistshowspatchername" : 0,
										"commentary" : "",
										"showcommentary" : 0,
										"integercoordinates" : 1,
										"visible" : 1,
										"boxes" : [ 											{
												"box" : 												{
													"id" : "obj-45",
													"maxclass" : "newobj",
													"numinlets" : 1,
													"numoutlets" : 1,
													"outlettype" : [ "" ],
													"patching_rect" : [ 86.0, 125.0, 63.0, 22.0 ],
													"text" : "array.tolist"
												}

											}
, 											{
												"box" : 												{
													"id" : "obj-64",
													"maxclass" : "newobj",
													"numinlets" : 2,
													"numoutlets" : 2,
													"outlettype" : [ "", "" ],
													"patching_rect" : [ 50.0, 100.0, 55.0, 22.0 ],
													"text" : "zl.slice 1"
												}

											}
, 											{
												"box" : 												{
													"comment" : "",
													"id" : "obj-35",
													"index" : 1,
													"maxclass" : "inlet",
													"numinlets" : 0,
													"numoutlets" : 1,
													"outlettype" : [ "" ],
													"patching_rect" : [ 50.0, 40.0, 30.0, 30.0 ]
												}

											}
, 											{
												"box" : 												{
													"comment" : "",
													"id" : "obj-36",
													"index" : 1,
													"maxclass" : "outlet",
													"numinlets" : 1,
													"numoutlets" : 0,
													"patching_rect" : [ 86.0, 155.0, 30.0, 30.0 ]
												}

											}
 ],
										"lines" : [ 											{
												"patchline" : 												{
													"destination" : [ "obj-64", 0 ],
													"source" : [ "obj-35", 0 ]
												}

											}
, 											{
												"patchline" : 												{
													"destination" : [ "obj-36", 0 ],
													"source" : [ "obj-45", 0 ]
												}

											}
, 											{
												"patchline" : 												{
													"destination" : [ "obj-45", 0 ],
													"source" : [ "obj-64", 1 ]
												}

											}
 ]
									}
,
									"patching_rect" : [ 455.0, 183.0, 49.0, 22.0 ],
									"text" : "p parse"
								}

							}
, 							{
								"box" : 								{
									"id" : "obj-25",
									"maxclass" : "newobj",
									"numinlets" : 1,
									"numoutlets" : 0,
									"patching_rect" : [ 455.0, 399.0, 91.0, 22.0 ],
									"text" : "print @popup 1"
								}

							}
, 							{
								"box" : 								{
									"color" : [ 1.0, 0.635294117647059, 0.266666666666667, 1.0 ],
									"id" : "obj-20",
									"maxclass" : "newobj",
									"numinlets" : 1,
									"numoutlets" : 1,
									"outlettype" : [ "float" ],
									"patching_rect" : [ 455.0, 342.0, 108.0, 22.0 ],
									"text" : "pdm.scale.validate"
								}

							}
, 							{
								"box" : 								{
									"id" : "obj-85",
									"maxclass" : "message",
									"numinlets" : 2,
									"numoutlets" : 1,
									"outlettype" : [ "" ],
									"patching_rect" : [ 562.0, 275.0, 87.0, 22.0 ],
									"text" : "0 2 4 6 7 9 11"
								}

							}
, 							{
								"box" : 								{
									"id" : "obj-62",
									"maxclass" : "multislider",
									"numinlets" : 1,
									"numoutlets" : 2,
									"outlettype" : [ "", "" ],
									"parameter_enable" : 0,
									"patching_rect" : [ 568.0, 305.0, 76.0, 77.0 ],
									"setminmax" : [ -1.0, 12.0 ],
									"settype" : 0,
									"size" : 7
								}

							}
, 							{
								"box" : 								{
									"id" : "obj-8",
									"linecount" : 5,
									"maxclass" : "comment",
									"numinlets" : 1,
									"numoutlets" : 0,
									"patching_rect" : [ 19.0, 67.0, 546.0, 74.0 ],
									"text" : "scales are just a list of intervals in semitones relative to the root note. \n\nscales should always start with zero, and the should always be sorted in ascending order.\n\nyou can use pdm.scale.validate to make sure your scale is correct"
								}

							}
, 							{
								"box" : 								{
									"fontsize" : 36.0,
									"id" : "obj-5",
									"maxclass" : "comment",
									"numinlets" : 1,
									"numoutlets" : 0,
									"patching_rect" : [ 17.0, 18.0, 344.0, 47.0 ],
									"text" : "pdm.scale"
								}

							}
, 							{
								"box" : 								{
									"id" : "obj-74",
									"maxclass" : "newobj",
									"numinlets" : 1,
									"numoutlets" : 1,
									"outlettype" : [ "" ],
									"patching_rect" : [ 19.0, 142.0, 70.0, 22.0 ],
									"text" : "loadmess 1"
								}

							}
, 							{
								"box" : 								{
									"bubble" : 1,
									"id" : "obj-73",
									"maxclass" : "comment",
									"numinlets" : 1,
									"numoutlets" : 0,
									"patching_rect" : [ 172.0, 171.0, 97.0, 24.0 ],
									"text" : "pick a scale."
								}

							}
, 							{
								"box" : 								{
									"id" : "obj-59",
									"maxclass" : "message",
									"numinlets" : 2,
									"numoutlets" : 1,
									"outlettype" : [ "" ],
									"patching_rect" : [ 86.0, 194.0, 42.0, 22.0 ],
									"text" : "get $1"
								}

							}
, 							{
								"box" : 								{
									"id" : "obj-55",
									"items" : [ "chromatic", ",", "major", ",", "minor", ",", "dorian", ",", "mixolydian", ",", "lydian", ",", "phrygian", ",", "locrian", ",", "whole_tone", ",", "half_whole_diminished", ",", "whole_half_diminshed", ",", "minor_blues", ",", "minor_pentatonic", ",", "major_pentatonic", ",", "harmonic_minor", ",", "harmonic_major", ",", "dorian_4", ",", "phrygian_dominant", ",", "melodic_minor", ",", "lydian_augmented", ",", "lydian_dominant", ",", "super_locrian", ",", "8-tone_spanish", ",", "bhairav", ",", "hungarian_minor", ",", "hirajoshi", ",", "insen", ",", "iwato", ",", "kumoi", ",", "pelog_selisir", ",", "pelog_tembung", ",", "messiaen_3", ",", "messiaen_4", ",", "messiaen_5", ",", "messiaen_6", ",", "messiaen_7" ],
									"maxclass" : "umenu",
									"numinlets" : 1,
									"numoutlets" : 3,
									"outlettype" : [ "int", "", "" ],
									"parameter_enable" : 0,
									"patching_rect" : [ 19.0, 171.0, 153.0, 22.0 ]
								}

							}
, 							{
								"box" : 								{
									"id" : "obj-47",
									"maxclass" : "newobj",
									"numinlets" : 1,
									"numoutlets" : 1,
									"outlettype" : [ "" ],
									"patching_rect" : [ 455.0, 275.0, 101.0, 22.0 ],
									"text" : "prepend intervals"
								}

							}
 ],
						"lines" : [ 							{
								"patchline" : 								{
									"destination" : [ "obj-37", 0 ],
									"midpoints" : [ 175.75, 431.0, 443.464864364359528, 431.0, 443.464864364359528, 167.174788813106716, 464.5, 167.174788813106716 ],
									"source" : [ "obj-1", 1 ]
								}

							}
, 							{
								"patchline" : 								{
									"destination" : [ "obj-47", 0 ],
									"source" : [ "obj-2", 0 ]
								}

							}
, 							{
								"patchline" : 								{
									"destination" : [ "obj-7", 0 ],
									"source" : [ "obj-20", 0 ]
								}

							}
, 							{
								"patchline" : 								{
									"destination" : [ "obj-47", 0 ],
									"order" : 2,
									"source" : [ "obj-37", 0 ]
								}

							}
, 							{
								"patchline" : 								{
									"destination" : [ "obj-62", 0 ],
									"order" : 1,
									"source" : [ "obj-37", 0 ]
								}

							}
, 							{
								"patchline" : 								{
									"destination" : [ "obj-85", 1 ],
									"order" : 0,
									"source" : [ "obj-37", 0 ]
								}

							}
, 							{
								"patchline" : 								{
									"destination" : [ "obj-47", 0 ],
									"source" : [ "obj-39", 0 ]
								}

							}
, 							{
								"patchline" : 								{
									"destination" : [ "obj-20", 0 ],
									"source" : [ "obj-47", 0 ]
								}

							}
, 							{
								"patchline" : 								{
									"destination" : [ "obj-59", 0 ],
									"source" : [ "obj-55", 1 ]
								}

							}
, 							{
								"patchline" : 								{
									"destination" : [ "obj-1", 0 ],
									"source" : [ "obj-59", 0 ]
								}

							}
, 							{
								"patchline" : 								{
									"destination" : [ "obj-25", 0 ],
									"source" : [ "obj-7", 0 ]
								}

							}
, 							{
								"patchline" : 								{
									"destination" : [ "obj-55", 0 ],
									"source" : [ "obj-74", 0 ]
								}

							}
 ]
					}
,
					"patching_rect" : [ 120.0, 28.0, 92.0, 22.0 ],
					"presentation_linecount" : 3,
					"text" : "p \"scale format\""
				}

			}
, 			{
				"box" : 				{
					"id" : "obj-50",
					"maxclass" : "newobj",
					"numinlets" : 0,
					"numoutlets" : 0,
					"patcher" : 					{
						"fileversion" : 1,
						"appversion" : 						{
							"major" : 9,
							"minor" : 1,
							"revision" : 0,
							"architecture" : "x64",
							"modernui" : 1
						}
,
						"classnamespace" : "box",
						"openrect" : [ 10.0, 10.0, 850.0, 600.0 ],
						"gridsize" : [ 15.0, 15.0 ],
						"showontab" : 1,
						"assistshowspatchername" : 0,
						"commentary" : "",
						"showcommentary" : 0,
						"integercoordinates" : 1,
						"visible" : 1,
						"boxes" : [ 							{
								"box" : 								{
									"bubble" : 1,
									"id" : "obj-12",
									"linecount" : 3,
									"maxclass" : "comment",
									"numinlets" : 1,
									"numoutlets" : 0,
									"patching_rect" : [ 717.0, 135.0, 97.0, 51.0 ],
									"presentation_linecount" : 3,
									"text" : "transpose\n(in scale degrees)"
								}

							}
, 							{
								"box" : 								{
									"id" : "obj-49",
									"maxclass" : "comment",
									"numinlets" : 1,
									"numoutlets" : 0,
									"patching_rect" : [ 665.0, 115.0, 114.0, 20.0 ],
									"text" : "transpose amount "
								}

							}
, 							{
								"box" : 								{
									"id" : "obj-48",
									"maxclass" : "comment",
									"numinlets" : 1,
									"numoutlets" : 0,
									"patching_rect" : [ 484.0, 115.0, 100.0, 20.0 ],
									"text" : "rounding mode"
								}

							}
, 							{
								"box" : 								{
									"id" : "obj-46",
									"maxclass" : "comment",
									"numinlets" : 1,
									"numoutlets" : 0,
									"patching_rect" : [ 368.0, 115.0, 100.0, 20.0 ],
									"text" : "root note"
								}

							}
, 							{
								"box" : 								{
									"id" : "obj-44",
									"linecount" : 2,
									"maxclass" : "comment",
									"numinlets" : 1,
									"numoutlets" : 0,
									"patching_rect" : [ 500.0, 307.0, 107.0, 33.0 ],
									"text" : "green = base note\nred = transposed"
								}

							}
, 							{
								"box" : 								{
									"id" : "obj-37",
									"maxclass" : "newobj",
									"numinlets" : 1,
									"numoutlets" : 1,
									"outlettype" : [ "" ],
									"patcher" : 									{
										"fileversion" : 1,
										"appversion" : 										{
											"major" : 9,
											"minor" : 1,
											"revision" : 0,
											"architecture" : "x64",
											"modernui" : 1
										}
,
										"classnamespace" : "box",
										"rect" : [ 0.0, 0.0, 1000.0, 755.200000000000045 ],
										"gridsize" : [ 15.0, 15.0 ],
										"assistshowspatchername" : 0,
										"commentary" : "",
										"showcommentary" : 0,
										"integercoordinates" : 1,
										"boxes" : [ 											{
												"box" : 												{
													"id" : "obj-45",
													"maxclass" : "newobj",
													"numinlets" : 1,
													"numoutlets" : 1,
													"outlettype" : [ "" ],
													"patching_rect" : [ 86.0, 125.0, 63.0, 22.0 ],
													"text" : "array.tolist"
												}

											}
, 											{
												"box" : 												{
													"id" : "obj-64",
													"maxclass" : "newobj",
													"numinlets" : 2,
													"numoutlets" : 2,
													"outlettype" : [ "", "" ],
													"patching_rect" : [ 50.0, 100.0, 55.0, 22.0 ],
													"text" : "zl.slice 1"
												}

											}
, 											{
												"box" : 												{
													"comment" : "",
													"id" : "obj-35",
													"index" : 1,
													"maxclass" : "inlet",
													"numinlets" : 0,
													"numoutlets" : 1,
													"outlettype" : [ "" ],
													"patching_rect" : [ 50.0, 40.0, 30.0, 30.0 ]
												}

											}
, 											{
												"box" : 												{
													"comment" : "",
													"id" : "obj-36",
													"index" : 1,
													"maxclass" : "outlet",
													"numinlets" : 1,
													"numoutlets" : 0,
													"patching_rect" : [ 86.0, 207.0, 30.0, 30.0 ]
												}

											}
 ],
										"lines" : [ 											{
												"patchline" : 												{
													"destination" : [ "obj-64", 0 ],
													"source" : [ "obj-35", 0 ]
												}

											}
, 											{
												"patchline" : 												{
													"destination" : [ "obj-36", 0 ],
													"source" : [ "obj-45", 0 ]
												}

											}
, 											{
												"patchline" : 												{
													"destination" : [ "obj-45", 0 ],
													"source" : [ "obj-64", 1 ]
												}

											}
 ]
									}
,
									"patching_rect" : [ 138.0, 224.0, 49.0, 22.0 ],
									"text" : "p parse"
								}

							}
, 							{
								"box" : 								{
									"id" : "obj-34",
									"maxclass" : "newobj",
									"numinlets" : 2,
									"numoutlets" : 2,
									"outlettype" : [ "", "" ],
									"patching_rect" : [ 368.0, 312.0, 38.0, 22.0 ],
									"text" : "zl.reg"
								}

							}
, 							{
								"box" : 								{
									"blackkeycolor" : [ 0.0, 0.0, 0.0, 0.0 ],
									"hkeycolor" : [ 1.0, 0.0, 0.0, 0.5 ],
									"id" : "obj-19",
									"ignoreclick" : 1,
									"maxclass" : "kslider",
									"numinlets" : 2,
									"numoutlets" : 2,
									"outlettype" : [ "int", "int" ],
									"parameter_enable" : 0,
									"patching_rect" : [ 442.0, 250.0, 336.0, 53.0 ],
									"selectioncolor" : [ 0.922234290352602, 0.71007200526417, 0.329758341965716, 0.0 ],
									"whitekeycolor" : [ 0.92156862745098, 0.917647058823529, 0.933333333333333, 0.0 ]
								}

							}
, 							{
								"box" : 								{
									"id" : "obj-17",
									"linecount" : 2,
									"maxclass" : "comment",
									"numinlets" : 1,
									"numoutlets" : 0,
									"patching_rect" : [ 665.0, 415.0, 48.0, 33.0 ],
									"text" : "scale \ndegree"
								}

							}
, 							{
								"box" : 								{
									"id" : "obj-18",
									"linecount" : 2,
									"maxclass" : "comment",
									"numinlets" : 1,
									"numoutlets" : 0,
									"patching_rect" : [ 581.0, 415.0, 71.0, 33.0 ],
									"text" : "transposed note"
								}

							}
, 							{
								"box" : 								{
									"id" : "obj-15",
									"maxclass" : "number",
									"numinlets" : 1,
									"numoutlets" : 2,
									"outlettype" : [ "", "bang" ],
									"parameter_enable" : 0,
									"patching_rect" : [ 665.0, 391.0, 50.0, 22.0 ]
								}

							}
, 							{
								"box" : 								{
									"id" : "obj-16",
									"maxclass" : "number",
									"numinlets" : 1,
									"numoutlets" : 2,
									"outlettype" : [ "", "bang" ],
									"parameter_enable" : 0,
									"patching_rect" : [ 574.0, 391.0, 50.0, 22.0 ]
								}

							}
, 							{
								"box" : 								{
									"id" : "obj-13",
									"maxclass" : "number",
									"numinlets" : 1,
									"numoutlets" : 2,
									"outlettype" : [ "", "bang" ],
									"parameter_enable" : 0,
									"patching_rect" : [ 665.0, 136.0, 50.0, 22.0 ]
								}

							}
, 							{
								"box" : 								{
									"color" : [ 1.0, 0.635294117647059, 0.266666666666667, 1.0 ],
									"id" : "obj-14",
									"maxclass" : "newobj",
									"numinlets" : 2,
									"numoutlets" : 2,
									"outlettype" : [ "float", "float" ],
									"patching_rect" : [ 574.0, 360.0, 110.0, 22.0 ],
									"text" : "pdm.scale.xpose"
								}

							}
, 							{
								"box" : 								{
									"id" : "obj-10",
									"maxclass" : "message",
									"numinlets" : 2,
									"numoutlets" : 1,
									"outlettype" : [ "" ],
									"patching_rect" : [ 484.0, 167.0, 93.0, 22.0 ],
									"text" : "round_mode $1"
								}

							}
, 							{
								"box" : 								{
									"id" : "obj-7",
									"items" : [ "down", ",", "up", ",", "nearest", ",", "smart" ],
									"maxclass" : "umenu",
									"numinlets" : 1,
									"numoutlets" : 3,
									"outlettype" : [ "int", "", "" ],
									"parameter_enable" : 0,
									"patching_rect" : [ 484.0, 136.0, 100.0, 22.0 ]
								}

							}
, 							{
								"box" : 								{
									"id" : "obj-85",
									"maxclass" : "message",
									"numinlets" : 2,
									"numoutlets" : 1,
									"outlettype" : [ "" ],
									"patching_rect" : [ 110.0, 375.0, 178.0, 22.0 ],
									"text" : "0 3 5 7 10"
								}

							}
, 							{
								"box" : 								{
									"id" : "obj-83",
									"linecount" : 2,
									"maxclass" : "comment",
									"numinlets" : 1,
									"numoutlets" : 0,
									"patching_rect" : [ 513.0, 415.0, 48.0, 33.0 ],
									"text" : "scale \ndegree"
								}

							}
, 							{
								"box" : 								{
									"id" : "obj-82",
									"maxclass" : "comment",
									"numinlets" : 1,
									"numoutlets" : 0,
									"patching_rect" : [ 456.0, 415.0, 48.0, 20.0 ],
									"text" : "fit note"
								}

							}
, 							{
								"box" : 								{
									"color" : [ 1.0, 0.635294117647059, 0.266666666666667, 1.0 ],
									"id" : "obj-65",
									"maxclass" : "newobj",
									"numinlets" : 1,
									"numoutlets" : 2,
									"outlettype" : [ "float", "float" ],
									"patching_rect" : [ 443.0, 363.0, 76.0, 22.0 ],
									"text" : "pdm.scale.fit"
								}

							}
, 							{
								"box" : 								{
									"id" : "obj-62",
									"maxclass" : "multislider",
									"numinlets" : 1,
									"numoutlets" : 2,
									"outlettype" : [ "", "" ],
									"parameter_enable" : 0,
									"patching_rect" : [ 110.0, 312.0, 178.0, 58.0 ],
									"setminmax" : [ -1.0, 12.0 ],
									"settype" : 0,
									"size" : 5
								}

							}
, 							{
								"box" : 								{
									"id" : "obj-33",
									"maxclass" : "newobj",
									"numinlets" : 2,
									"numoutlets" : 5,
									"outlettype" : [ "dictionary", "", "", "", "" ],
									"patching_rect" : [ 87.0, 197.0, 224.0, 22.0 ],
									"saved_object_attributes" : 									{
										"legacy" : 1,
										"parameter_enable" : 0,
										"parameter_mappable" : 0
									}
,
									"text" : "dict pdm.scale.launch.scales scales.json"
								}

							}
, 							{
								"box" : 								{
									"id" : "obj-8",
									"maxclass" : "comment",
									"numinlets" : 1,
									"numoutlets" : 0,
									"patching_rect" : [ 21.0, 67.0, 479.0, 20.0 ],
									"text" : "a package for keeping things in tune "
								}

							}
, 							{
								"box" : 								{
									"fontsize" : 36.0,
									"id" : "obj-5",
									"maxclass" : "comment",
									"numinlets" : 1,
									"numoutlets" : 0,
									"patching_rect" : [ 17.0, 18.0, 344.0, 47.0 ],
									"text" : "pdm.scale"
								}

							}
, 							{
								"box" : 								{
									"id" : "obj-2",
									"maxclass" : "number",
									"numinlets" : 1,
									"numoutlets" : 2,
									"outlettype" : [ "", "bang" ],
									"parameter_enable" : 0,
									"patching_rect" : [ 500.0, 391.0, 50.0, 22.0 ]
								}

							}
, 							{
								"box" : 								{
									"id" : "obj-81",
									"maxclass" : "message",
									"numinlets" : 2,
									"numoutlets" : 1,
									"outlettype" : [ "" ],
									"patching_rect" : [ 368.0, 167.0, 76.0, 22.0 ],
									"text" : "root_note $1"
								}

							}
, 							{
								"box" : 								{
									"id" : "obj-77",
									"items" : [ "C", ",", "C#", ",", "D", ",", "D#", "E", ",", "F", ",", "F#", ",", "G", ",", "G#", ",", "A", ",", "A#", ",", "B" ],
									"maxclass" : "umenu",
									"numinlets" : 1,
									"numoutlets" : 3,
									"outlettype" : [ "int", "", "" ],
									"parameter_enable" : 0,
									"patching_rect" : [ 368.0, 136.0, 100.0, 22.0 ]
								}

							}
, 							{
								"box" : 								{
									"bubble" : 1,
									"bubbleside" : 2,
									"id" : "obj-76",
									"maxclass" : "comment",
									"numinlets" : 1,
									"numoutlets" : 0,
									"patching_rect" : [ 480.0, 207.0, 288.0, 39.0 ],
									"text" : "play some notes and watch them be fit to the scale"
								}

							}
, 							{
								"box" : 								{
									"id" : "obj-74",
									"maxclass" : "newobj",
									"numinlets" : 1,
									"numoutlets" : 1,
									"outlettype" : [ "" ],
									"patching_rect" : [ 21.0, 105.0, 70.0, 22.0 ],
									"text" : "loadmess 1"
								}

							}
, 							{
								"box" : 								{
									"bubble" : 1,
									"id" : "obj-73",
									"maxclass" : "comment",
									"numinlets" : 1,
									"numoutlets" : 0,
									"patching_rect" : [ 174.0, 133.0, 97.0, 24.0 ],
									"text" : "pick a scale."
								}

							}
, 							{
								"box" : 								{
									"id" : "obj-67",
									"maxclass" : "newobj",
									"numinlets" : 2,
									"numoutlets" : 1,
									"outlettype" : [ "" ],
									"patching_rect" : [ 443.0, 451.0, 55.0, 22.0 ],
									"text" : "pipe 250"
								}

							}
, 							{
								"box" : 								{
									"id" : "obj-66",
									"maxclass" : "message",
									"numinlets" : 2,
									"numoutlets" : 1,
									"outlettype" : [ "" ],
									"patching_rect" : [ 443.0, 479.0, 41.0, 22.0 ],
									"text" : "set $1"
								}

							}
, 							{
								"box" : 								{
									"id" : "obj-59",
									"maxclass" : "message",
									"numinlets" : 2,
									"numoutlets" : 1,
									"outlettype" : [ "" ],
									"patching_rect" : [ 87.0, 171.0, 42.0, 22.0 ],
									"text" : "get $1"
								}

							}
, 							{
								"box" : 								{
									"id" : "obj-55",
									"items" : [ "chromatic", ",", "major", ",", "minor", ",", "dorian", ",", "mixolydian", ",", "lydian", ",", "phrygian", ",", "locrian", ",", "whole_tone", ",", "half_whole_diminished", ",", "whole_half_diminshed", ",", "minor_blues", ",", "minor_pentatonic", ",", "major_pentatonic", ",", "harmonic_minor", ",", "harmonic_major", ",", "dorian_4", ",", "phrygian_dominant", ",", "melodic_minor", ",", "lydian_augmented", ",", "lydian_dominant", ",", "super_locrian", ",", "8-tone_spanish", ",", "bhairav", ",", "hungarian_minor", ",", "hirajoshi", ",", "insen", ",", "iwato", ",", "kumoi", ",", "pelog_selisir", ",", "pelog_tembung", ",", "messiaen_3", ",", "messiaen_4", ",", "messiaen_5", ",", "messiaen_6", ",", "messiaen_7" ],
									"maxclass" : "umenu",
									"numinlets" : 1,
									"numoutlets" : 3,
									"outlettype" : [ "int", "", "" ],
									"parameter_enable" : 0,
									"patching_rect" : [ 21.0, 133.0, 153.0, 22.0 ]
								}

							}
, 							{
								"box" : 								{
									"id" : "obj-41",
									"maxclass" : "number",
									"numinlets" : 1,
									"numoutlets" : 2,
									"outlettype" : [ "", "bang" ],
									"parameter_enable" : 0,
									"patching_rect" : [ 443.0, 391.0, 50.0, 22.0 ]
								}

							}
, 							{
								"box" : 								{
									"id" : "obj-11",
									"maxclass" : "number",
									"numinlets" : 1,
									"numoutlets" : 2,
									"outlettype" : [ "", "bang" ],
									"parameter_enable" : 0,
									"patching_rect" : [ 442.0, 312.0, 50.0, 22.0 ]
								}

							}
, 							{
								"box" : 								{
									"hkeycolor" : [ 0.792156862745098, 0.792156862745098, 0.031372549019608, 1.0 ],
									"id" : "obj-4",
									"maxclass" : "kslider",
									"numinlets" : 2,
									"numoutlets" : 2,
									"outlettype" : [ "int", "int" ],
									"parameter_enable" : 0,
									"patching_rect" : [ 442.0, 250.0, 336.0, 53.0 ]
								}

							}
, 							{
								"box" : 								{
									"id" : "obj-47",
									"maxclass" : "newobj",
									"numinlets" : 1,
									"numoutlets" : 1,
									"outlettype" : [ "" ],
									"patching_rect" : [ 138.0, 253.0, 101.0, 22.0 ],
									"text" : "prepend intervals"
								}

							}
 ],
						"lines" : [ 							{
								"patchline" : 								{
									"destination" : [ "obj-34", 0 ],
									"midpoints" : [ 493.5, 202.297370094107464, 377.5, 202.297370094107464 ],
									"source" : [ "obj-10", 0 ]
								}

							}
, 							{
								"patchline" : 								{
									"destination" : [ "obj-14", 0 ],
									"order" : 0,
									"source" : [ "obj-11", 0 ]
								}

							}
, 							{
								"patchline" : 								{
									"destination" : [ "obj-65", 0 ],
									"order" : 1,
									"source" : [ "obj-11", 0 ]
								}

							}
, 							{
								"patchline" : 								{
									"destination" : [ "obj-14", 1 ],
									"source" : [ "obj-13", 0 ]
								}

							}
, 							{
								"patchline" : 								{
									"destination" : [ "obj-15", 0 ],
									"source" : [ "obj-14", 1 ]
								}

							}
, 							{
								"patchline" : 								{
									"destination" : [ "obj-16", 0 ],
									"source" : [ "obj-14", 0 ]
								}

							}
, 							{
								"patchline" : 								{
									"destination" : [ "obj-19", 0 ],
									"midpoints" : [ 583.5, 510.627550184726715, 423.552695411257446, 510.627550184726715, 423.552695411257446, 235.745456025935709, 451.5, 235.745456025935709 ],
									"source" : [ "obj-16", 0 ]
								}

							}
, 							{
								"patchline" : 								{
									"destination" : [ "obj-37", 0 ],
									"source" : [ "obj-33", 1 ]
								}

							}
, 							{
								"patchline" : 								{
									"destination" : [ "obj-14", 0 ],
									"order" : 0,
									"source" : [ "obj-34", 0 ]
								}

							}
, 							{
								"patchline" : 								{
									"destination" : [ "obj-65", 0 ],
									"order" : 1,
									"source" : [ "obj-34", 0 ]
								}

							}
, 							{
								"patchline" : 								{
									"destination" : [ "obj-47", 0 ],
									"order" : 1,
									"source" : [ "obj-37", 0 ]
								}

							}
, 							{
								"patchline" : 								{
									"destination" : [ "obj-62", 0 ],
									"order" : 2,
									"source" : [ "obj-37", 0 ]
								}

							}
, 							{
								"patchline" : 								{
									"destination" : [ "obj-85", 1 ],
									"order" : 0,
									"source" : [ "obj-37", 0 ]
								}

							}
, 							{
								"patchline" : 								{
									"destination" : [ "obj-11", 0 ],
									"source" : [ "obj-4", 0 ]
								}

							}
, 							{
								"patchline" : 								{
									"destination" : [ "obj-67", 0 ],
									"source" : [ "obj-41", 0 ]
								}

							}
, 							{
								"patchline" : 								{
									"destination" : [ "obj-34", 0 ],
									"source" : [ "obj-47", 0 ]
								}

							}
, 							{
								"patchline" : 								{
									"destination" : [ "obj-59", 0 ],
									"source" : [ "obj-55", 1 ]
								}

							}
, 							{
								"patchline" : 								{
									"destination" : [ "obj-33", 0 ],
									"source" : [ "obj-59", 0 ]
								}

							}
, 							{
								"patchline" : 								{
									"destination" : [ "obj-2", 0 ],
									"source" : [ "obj-65", 1 ]
								}

							}
, 							{
								"patchline" : 								{
									"destination" : [ "obj-41", 0 ],
									"source" : [ "obj-65", 0 ]
								}

							}
, 							{
								"patchline" : 								{
									"destination" : [ "obj-4", 0 ],
									"midpoints" : [ 452.5, 509.954245147528127, 422.702958699548617, 509.954245147528127, 422.702958699548617, 235.053224068367854, 451.5, 235.053224068367854 ],
									"source" : [ "obj-66", 0 ]
								}

							}
, 							{
								"patchline" : 								{
									"destination" : [ "obj-66", 0 ],
									"source" : [ "obj-67", 0 ]
								}

							}
, 							{
								"patchline" : 								{
									"destination" : [ "obj-10", 0 ],
									"source" : [ "obj-7", 0 ]
								}

							}
, 							{
								"patchline" : 								{
									"destination" : [ "obj-55", 0 ],
									"source" : [ "obj-74", 0 ]
								}

							}
, 							{
								"patchline" : 								{
									"destination" : [ "obj-81", 0 ],
									"source" : [ "obj-77", 0 ]
								}

							}
, 							{
								"patchline" : 								{
									"destination" : [ "obj-34", 0 ],
									"source" : [ "obj-81", 0 ]
								}

							}
 ]
					}
,
					"patching_rect" : [ 36.0, 29.0, 47.0, 22.0 ],
					"text" : "p basic"
				}

			}
 ],
		"lines" : [  ],
		"dependency_cache" : [ 			{
				"name" : "pdm.scale.fit.gendsp",
				"bootpath" : "~/Documents/Max 9/Packages/pdm.scale/code",
				"patcherrelativepath" : "../../code",
				"type" : "gDSP",
				"implicit" : 1
			}
, 			{
				"name" : "pdm.scale.fit.maxpat",
				"bootpath" : "~/Documents/Max 9/Packages/pdm.scale/patchers",
				"patcherrelativepath" : "../../patchers",
				"type" : "JSON",
				"implicit" : 1
			}
, 			{
				"name" : "pdm.scale.lib.genexpr",
				"bootpath" : "~/Documents/Max 9/Packages/pdm.scale/code",
				"patcherrelativepath" : "../../code",
				"type" : "GenX",
				"implicit" : 1
			}
, 			{
				"name" : "pdm.scale.validate.gendsp",
				"bootpath" : "~/Documents/Max 9/Packages/pdm.scale/code",
				"patcherrelativepath" : "../../code",
				"type" : "gDSP",
				"implicit" : 1
			}
, 			{
				"name" : "pdm.scale.validate.maxpat",
				"bootpath" : "~/Documents/Max 9/Packages/pdm.scale/patchers",
				"patcherrelativepath" : "../../patchers",
				"type" : "JSON",
				"implicit" : 1
			}
, 			{
				"name" : "pdm.scale.xpose.gendsp",
				"bootpath" : "~/Documents/Max 9/Packages/pdm.scale/code",
				"patcherrelativepath" : "../../code",
				"type" : "gDSP",
				"implicit" : 1
			}
, 			{
				"name" : "pdm.scale.xpose.maxpat",
				"bootpath" : "~/Documents/Max 9/Packages/pdm.scale/patchers",
				"patcherrelativepath" : "../../patchers",
				"type" : "JSON",
				"implicit" : 1
			}
, 			{
				"name" : "scales.json",
				"bootpath" : "~/Documents/Max 9/Packages/pdm.scale/misc",
				"patcherrelativepath" : "../../misc",
				"type" : "JSON",
				"implicit" : 1
			}
 ],
		"autosave" : 0
	}

}
